<svg id="logo-steam" viewBox="0 0 85 26" xmlns="http://www.w3.org/2000/svg">
<path d="M12.7688 0C6.0383 0 0.524081 5.26551 0 11.9574L6.86744 14.8382C7.44934 14.4345 8.1523 14.1983 8.90866 14.1983C8.97654 14.1983 9.04393 14.2002 9.11088 14.204L12.165 9.71273C12.165 9.69143 12.1645 9.67062 12.1645 9.64932C12.1645 6.94607 14.3322 4.74658 16.9968 4.74658C19.6612 4.74658 21.8288 6.94607 21.8288 9.64932C21.8288 12.3526 19.6612 14.5523 16.9968 14.5523C16.96 14.5523 16.9236 14.5514 16.8872 14.5504L12.5314 17.7037C12.5337 17.7615 12.5356 17.8197 12.5356 17.8779C12.5356 19.9073 10.9086 21.558 8.90866 21.558C7.15314 21.558 5.6852 20.2863 5.35261 18.6029L0.44128 16.5428C1.96194 21.9995 6.90312 26 12.7688 26C19.8455 26 25.5819 20.1794 25.5819 13C25.5819 5.82018 19.8455 0 12.7688 0Z" />
<path d="M8.02961 19.7255L6.4558 19.0658C6.73472 19.655 7.21727 20.1481 7.85797 20.4193C9.24287 21.0048 10.8398 20.3379 11.417 18.9319C11.6964 18.2513 11.6983 17.5007 11.4212 16.8188C11.1446 16.1368 10.6224 15.6048 9.95142 15.3209C9.28555 15.0398 8.57211 15.0502 7.94519 15.2901L9.57126 15.9721C10.5928 16.4042 11.0758 17.5944 10.6502 18.6309C10.2248 19.6673 9.05117 20.1576 8.02961 19.7255Z" />
<path d="M20.2165 9.6493C20.2165 7.84807 18.7721 6.38239 16.9968 6.38239C15.2215 6.38239 13.7769 7.84807 13.7769 9.6493C13.7769 11.4505 15.2215 12.9158 16.9968 12.9158C18.7721 12.9158 20.2165 11.4505 20.2165 9.6493ZM14.5833 9.64363C14.5833 8.2882 15.6665 7.18976 17.0022 7.18976C18.3381 7.18976 19.421 8.2882 19.421 9.64363C19.421 10.999 18.3381 12.0975 17.0022 12.0975C15.6665 12.0975 14.5833 10.999 14.5833 9.64363Z" />
<path d="M39.2662 8.89468L38.4077 10.4259C37.7464 9.95695 36.8503 9.67499 36.0679 9.67499C35.1737 9.67499 34.6205 10.0504 34.6205 10.7232C34.6205 11.5404 35.6034 11.7305 37.0641 12.2626C38.6343 12.826 39.5366 13.4883 39.5366 14.9471C39.5366 16.9432 37.9893 18.0646 35.7655 18.0646C34.6816 18.0646 33.3742 17.7808 32.3689 17.1606L32.9952 15.4628C33.8118 15.9006 34.7885 16.1597 35.6591 16.1597C36.8327 16.1597 37.3908 15.7203 37.3908 15.071C37.3908 14.3279 36.54 14.1043 35.1667 13.6431C33.6019 13.1129 32.5174 12.4174 32.5174 10.8024C32.5174 8.98149 33.9549 7.93542 36.0232 7.93542C37.4646 7.93542 38.6232 8.39905 39.2662 8.89468Z" />
<path d="M45.977 9.86241V17.8967H43.956V9.86241H41.0216V8.10333H48.9026V9.86241H45.977Z" />
<path d="M53.164 9.8571V12.0639H57.0327V13.8228H53.164V16.1217H57.6524V17.8967H51.1432V8.10333H57.6524V9.8571H53.164Z" />
<path d="M62.1643 15.9953L61.5253 17.8967H59.4064L63.0256 8.10333H65.0603L68.7819 17.8967H66.5908L65.938 15.9953H62.1643ZM64.0312 10.4397L62.7134 14.3608H65.3771L64.0312 10.4397Z" />
<path d="M79.1558 11.8887L76.5144 17.6113H75.3739L72.775 11.9399V17.8967H70.8391V8.10333H72.7705L76.0149 15.1728L79.1434 8.10333H81.0917V17.8967H79.1561L79.1558 11.8887Z" />
</svg>
