<svg id="logo-ps4" viewBox="0 0 97 21" xmlns="http://www.w3.org/2000/svg">
<path d="M16.3007 1.63462C20.0595 2.93486 21.3249 4.53229 21.3249 8.1358C21.3249 11.665 19.1664 13.0024 16.3751 11.665V5.08954C16.3751 4.30939 16.2263 3.60355 15.5192 3.4178C14.9609 3.23206 14.626 3.75215 14.626 4.53229V20.9524L10.1972 19.5407V-0.0371094C12.0581 0.297237 14.8121 1.15168 16.3007 1.63462ZM15.4447 20.6181L25.121 17.126C25.121 17.126 26.4235 16.6431 26.9445 15.9744C27.4656 15.3057 27.2423 14.3398 25.1582 13.6711C23.2974 12.9653 20.9527 12.7424 19.0175 12.9281C17.0822 13.151 15.7052 13.6339 15.7052 13.6339L15.4447 13.7082V16.383L20.2084 14.7113C21.0272 14.4141 22.2181 14.3769 22.8508 14.5627C23.5207 14.7856 23.3718 15.1942 22.5903 15.4914L15.4447 18.0176V20.6181ZM2.0469 17.7947C4.3543 18.5377 6.69892 18.6863 8.89468 18.3519C9.04354 18.3148 9.19241 18.3148 9.34128 18.2776V15.9744L7.14552 16.7545C6.32676 17.0517 5.13584 17.126 4.46595 16.9031C3.79606 16.6802 3.94492 16.2716 4.72646 15.9744L9.30406 14.3769V11.8136L2.9773 14.0426C2.9773 14.0426 1.45144 14.5627 0.52103 15.2314C-0.446592 15.9372 -0.111646 17.2003 2.0469 17.7947ZM76.6654 4.94094H68.2173C65.7611 4.94094 64.5702 6.46407 64.5702 8.433V14.4141C64.5702 15.64 63.9747 16.4945 62.7838 16.4945H54.8195C54.7823 16.4945 54.7451 16.5316 54.7451 16.5688V17.7576C54.7451 17.7947 54.7823 17.8319 54.8195 17.8319H63.677C66.1332 17.8319 67.3242 16.3087 67.3242 14.3769V8.39585C67.3242 7.16991 67.9196 6.31547 69.1105 6.31547H76.6654C76.7026 6.31547 76.7399 6.27832 76.7399 6.24117V5.05239C76.7771 4.97809 76.7026 4.94094 76.6654 4.94094ZM51.6561 4.94094H36.3603C36.323 4.94094 36.2858 4.97809 36.2858 5.01524V6.20402C36.2858 6.24117 36.323 6.27832 36.3603 6.27832H50.7629C51.9911 6.27832 52.5493 7.16991 52.5493 8.3587C52.5493 9.58464 51.9538 10.4391 50.7629 10.4391H39.3748C37.6256 10.4391 36.2858 11.9251 36.2858 13.894V17.7204C36.2858 17.7576 36.323 17.7947 36.3603 17.7947H38.9654C39.0026 17.7947 39.0398 17.7576 39.0398 17.7204V13.9311C39.0398 12.7052 39.7469 11.8508 40.7518 11.8508H51.6561C54.1124 11.8508 55.3033 10.3276 55.3033 8.39585C55.3033 6.46407 54.1124 4.94094 51.6561 4.94094ZM96.7622 15.0828C96.7994 15.0828 96.8738 15.1199 96.8738 15.1571V16.3459C96.8738 16.383 96.8366 16.4202 96.7622 16.4202H94.157C94.1198 16.4202 94.0826 16.4573 94.0826 16.5316V17.7204C94.0826 17.7576 94.0454 17.8319 94.0082 17.8319H91.4031C91.3658 17.8319 91.3286 17.7947 91.3286 17.7204V16.4945C91.3286 16.4573 91.2914 16.4202 91.2542 16.4202H76.7771C76.1072 16.4202 75.7722 16.2344 75.6234 15.9744C75.4745 15.6772 75.6978 15.2314 76.2933 14.8599L91.8869 5.27528C93.1894 4.45799 94.1198 4.90379 94.1198 6.24117V14.9342C94.1198 14.9713 94.157 15.0085 94.2315 15.0085H94.1198L96.7622 15.0828ZM91.2914 7.57856C91.2914 7.42996 91.1425 7.39281 91.0681 7.46711L78.9728 14.897C78.8984 14.9342 78.8612 14.9713 78.8984 15.0456C78.8984 15.0828 78.9728 15.1199 79.0473 15.1199H91.1797C91.217 15.1199 91.2542 15.0828 91.2542 15.0085V7.57856H91.2914Z"/>
</svg>
