<svg id="logo-xbox-one" viewBox="0 0 104 20" xmlns="http://www.w3.org/2000/svg">
<g clip-path="url(#clip0)">
<path d="M66.4732 16.2L62.5447 11L58.6163 16.2H56.9622L61.7177 9.89999L57.3757 4.19999H59.0298L62.5447 8.89999L66.0596 4.19999H67.7137L63.3718 9.89999L68.1272 16.2H66.4732ZM33.9085 16.2L29.9801 10.9L26.0517 16.1H24.3976L29.1531 9.79999L24.8111 4.09999H26.4652L29.9801 8.79999L33.495 4.09999H35.1491L30.8072 9.79999L35.5626 16.1H33.9085V16.2ZM45.6938 12.6C45.6938 14.8 44.0398 16.1 41.2485 16.1H36.1829V10.5H33.5984C33.8052 10.2 34.3221 9.59999 34.5288 9.29999H36.1829V4.09999H41.3519C45.0736 4.09999 45.3837 6.59999 45.3837 7.39999C45.3837 8.39999 44.7634 9.29999 43.9364 9.79999C44.2465 9.89999 44.4533 10.1 44.7634 10.3C45.3837 10.9 45.6938 11.7 45.6938 12.6ZM37.6302 9.29999H41.3519C43.006 9.29999 44.0398 8.49999 44.0398 7.29999C44.0398 5.59999 42.3857 5.39999 41.3519 5.39999H37.7336V9.29999H37.6302ZM44.3499 12.6C44.3499 10.9 42.6958 10.5 41.3519 10.5H37.7336V14.9H41.3519C42.4891 14.9 44.3499 14.6 44.3499 12.6ZM58.2028 10.1C58.2028 13.8 55.7217 16.4 52.3101 16.4C48.7952 16.4 46.4175 13.8 46.4175 10.1C46.4175 6.39999 48.8986 3.79999 52.3101 3.79999C55.825 3.89999 58.2028 6.39999 58.2028 10.1ZM56.7555 10.1C56.7555 7.09999 54.8946 5.09999 52.2068 5.09999C49.5189 5.09999 47.6581 7.19999 47.6581 10.1C47.6581 13.1 49.5189 15.1 52.2068 15.1C54.998 15.1 56.7555 13.1 56.7555 10.1Z" />
<path d="M92.2147 4.10004V14L84.7714 4.10004H83.5308V16.1H84.8747V6.50004L92.2147 16.2H93.662V4.10004H92.2147Z" />
<path d="M82.2903 10.1C82.2903 13.8 79.8091 16.4 76.3976 16.4C72.8827 16.4 70.505 13.8 70.505 10.1C70.505 6.39999 72.9861 3.79999 76.3976 3.79999C79.8091 3.89999 82.2903 6.39999 82.2903 10.1ZM80.8429 10.1C80.8429 7.09999 78.9821 5.09999 76.2942 5.09999C73.6064 5.09999 71.7455 7.19999 71.7455 10.1C71.7455 13.1 73.6064 15.1 76.2942 15.1C78.9821 15.1 80.8429 13.1 80.8429 10.1Z" />
<path d="M96.5567 15V10.5H103.38V9.40004H96.5567V5.30004H103.897V4.10004H95.2128V16.2H104V15H96.5567Z" />
<path d="M3.10139 2.90003C1.13718 4.70003 0 7.20003 0 10C0 12.3 0.827038 14.4 2.06759 16.1C2.06759 16.1 2.06759 16.1 2.17097 16.1C2.17097 16.1 2.17097 16.1 2.17097 16C1.34394 13.7 5.37575 8.00003 7.54672 5.60003C4.03181 2.10003 3.10139 2.90003 3.10139 2.90003Z" />
<path d="M17.5745 2.90004C19.4354 4.70003 20.6759 7.20003 20.6759 10C20.6759 12.3 19.8489 14.4 18.6083 16.1C18.6083 16.1 18.6083 16.1 18.505 16.1C18.505 16.1 18.505 16.1 18.505 16C19.332 13.6 15.3002 7.90003 13.2326 5.50004C16.6441 2.10004 17.5745 2.90004 17.5745 2.90004Z" />
<path d="M10.338 0C12.4056 0 14.163 0.6 15.7137 1.5C13.6461 1.1 10.6481 2.8 10.338 3C9.51094 2.5 6.71969 1.1 4.96223 1.5C4.96223 1.5 4.96223 1.5 4.96223 1.4C6.51293 0.6 8.27038 0 10.338 0Z" />
<path d="M10.338 8C13.4394 10.3 18.7117 15.9 17.161 17.5C15.3002 19.1 12.9225 20 10.338 20C7.75348 20 5.37574 19.1 3.51491 17.5C1.96421 15.9 7.23658 10.3 10.338 8Z" />
</g>
<defs>
<clipPath id="clip0">
<path d="M0 0H104V20H0V0Z" />
</clipPath>
</defs>
</svg>
